<svg width="976.2500732421875px" height="421.03228759765625px" xmlns="http://www.w3.org/2000/svg" viewBox="-238.12503662109373 -135.51614379882812 976.2500732421875 421.03228759765625" style="background: rgba(0, 0, 0, 0);" preserveAspectRatio="xMidYMid"><defs><filter id="editing-hole" x="-100%" y="-100%" width="300%" height="300%"><feFlood flood-color="#000000" result="black"></feFlood><feMorphology operator="dilate" radius="2" in="SourceGraphic" result="erode"></feMorphology><feGaussianBlur in="erode" stdDeviation="4" result="blur"></feGaussianBlur><feOffset in="blur" dx="2" dy="2" result="offset"></feOffset><feComposite operator="atop" in="offset" in2="black" result="merge"></feComposite><feComposite operator="in" in="merge" in2="SourceGraphic" result="inner-shadow"></feComposite></filter></defs><g filter="url(#editing-hole)"><g transform="translate(-98.82499313354492, 133.59500122070312)"><path d="M40.04-100.78L40.04-109.96L113.09-109.96L113.09-100.78L88.28-100.78L88.28-39.84L88.28-39.84Q88.28-17.77 82.62-9.18L82.62-9.18L82.62-9.18Q78.32-2.93 70.90 0.20L70.90 0.20L70.90 0.20Q63.48 3.32 56.25 3.32L56.25 3.32L56.25 3.32Q40.63 3.32 16.99-7.62L16.99-7.62L13.28-9.18L11.52-51.37L21.09-51.37L21.88-32.42L21.88-32.42Q22.27-24.22 23.93-20.02L23.93-20.02L23.93-20.02Q25.59-15.82 31.05-12.50L31.05-12.50L31.05-12.50Q40.63-6.45 54.10-6.45L54.10-6.45L54.10-6.45Q61.13-6.45 65.92-8.59L65.92-8.59L65.92-8.59Q70.70-10.74 73.14-13.48L73.14-13.48L73.14-13.48Q75.59-16.21 76.86-21.48L76.86-21.48L76.86-21.48Q78.13-26.76 78.32-30.18L78.32-30.18L78.32-30.18Q78.52-33.59 78.52-39.84L78.52-39.84L78.52-100.78L40.04-100.78ZM139.26-100.78L139.26-109.96L181.25-109.96L222.46-9.18L232.42-9.18L232.42 0L192.38 0L192.38-9.18L212.30-9.18L201.17-36.33L150.20-36.33L139.26-9.18L159.18-9.18L159.18 0L119.14 0L119.14-9.18L129.49-9.18L167.19-100.78L139.26-100.78ZM153.71-44.92L197.85-44.92L175.78-98.44L153.71-44.92ZM243.16-100.78L243.16-109.96L293.36-109.96L293.36-109.96Q303.71-109.96 309.38-108.98L309.38-108.98L309.38-108.98Q315.04-108.01 319.92-104.69L319.92-104.69L319.92-104.69Q325-101.17 328.42-94.34L328.42-94.34L328.42-94.34Q331.84-87.50 331.84-80.47L331.84-80.47L331.84-80.47Q331.84-70.12 324.61-61.13L324.61-61.13L324.61-61.13Q317.38-52.15 301.95-50.59L301.95-50.59L301.95-50.59Q308.98-43.95 329.88-9.18L329.88-9.18L347.07-9.18L347.07 0L322.66 0L322.66 0Q316.02-14.45 303.91-33.40L303.91-33.40L303.91-33.40Q299.22-40.63 297.07-43.46L297.07-43.46L297.07-43.46Q294.92-46.29 291.41-48.34L291.41-48.34L291.41-48.34Q287.89-50.39 283.01-50.39L283.01-50.39L268.95-50.39L268.95-9.18L286.33-9.18L286.33 0L243.16 0L243.16-9.18L259.18-9.18L259.18-100.78L243.16-100.78ZM292.97-100.78L292.97-100.78L268.95-100.78L268.95-59.57L287.11-59.57L287.11-59.57Q291.99-59.57 294.82-59.67L294.82-59.67L294.82-59.67Q297.66-59.77 303.42-60.84L303.42-60.84L303.42-60.84Q309.18-61.91 312.50-63.96L312.50-63.96L312.50-63.96Q315.82-66.02 318.55-70.41L318.55-70.41L318.55-70.41Q321.29-74.80 321.29-81.05L321.29-81.05L321.29-81.05Q321.29-91.80 313.09-97.46L313.09-97.46L313.09-97.46Q308.20-100.78 292.97-100.78ZM352.73-100.78L352.73-109.96L394.53-109.96L394.53-100.78L376.17-100.78L410.74-10.94L445.90-100.78L425.98-100.78L425.98-109.96L467.58-109.96L467.58-100.78L455.27-100.78L416.60 0L404.49 0L366.21-100.78L352.73-100.78ZM488.28-100.78L488.28-109.96L566.41-109.96L566.41-100.78L532.23-100.78L532.23-9.18L566.41-9.18L566.41 0L488.28 0L488.28-9.18L522.46-9.18L522.46-100.78L488.28-100.78ZM676.17-112.11L676.17-112.11L684.96-112.11L684.96-112.11Q683.20-104.49 683.20-98.05L683.20-98.05L683.20-98.05Q683.20-89.06 684.96-74.80L684.96-74.80L676.17-73.24L676.17-73.24Q674.61-84.77 670.12-91.60L670.12-91.60L670.12-91.60Q662.30-103.52 645.31-103.52L645.31-103.52L645.31-103.52Q631.25-103.52 623.54-96.29L623.54-96.29L623.54-96.29Q615.82-89.06 615.82-80.47L615.82-80.47L615.82-80.47Q615.82-74.22 618.85-69.92L618.85-69.92L618.85-69.92Q621.88-65.63 627.44-63.57L627.44-63.57L627.44-63.57Q633.01-61.52 636.52-60.84L636.52-60.84L636.52-60.84Q640.04-60.16 645.51-59.57L645.51-59.57L645.51-59.57Q657.81-58.20 663.57-56.93L663.57-56.93L663.57-56.93Q669.34-55.66 674.02-52.54L674.02-52.54L674.02-52.54Q686.13-44.34 686.13-29.88L686.13-29.88L686.13-29.88Q686.13-14.06 674.02-5.37L674.02-5.37L674.02-5.37Q661.91 3.32 646.09 3.32L646.09 3.32L646.09 3.32Q630.08 3.32 619.34-5.66L619.34-5.66L619.34-5.66Q618.55-6.45 617.77-6.45L617.77-6.45L617.77-6.45Q616.80-6.45 615.82-4.88L615.82-4.88L615.82-4.88Q615.04-2.54 614.06 3.91L614.06 3.91L605.27 3.91L605.27 3.91Q607.03-4.49 607.03-13.48L607.03-13.48L607.03-13.48Q607.03-17.77 605.27-34.18L605.27-34.18L614.06-34.18L614.06-34.18Q616.41-22.46 620.70-16.80L620.70-16.80L620.70-16.80Q628.52-6.45 644.73-6.45L644.73-6.45L644.73-6.45Q660.94-6.45 668.26-13.28L668.26-13.28L668.26-13.28Q675.59-20.12 675.59-29.10L675.59-29.10L675.59-29.10Q675.59-33.98 673.63-37.60L673.63-37.60L673.63-37.60Q671.68-41.21 669.04-43.26L669.04-43.26L669.04-43.26Q666.41-45.31 662.21-46.68L662.21-46.68L662.21-46.68Q658.01-48.05 655.27-48.44L655.27-48.44L655.27-48.44Q652.54-48.83 648.44-49.22L648.44-49.22L648.44-49.22Q641.80-49.80 637.79-50.39L637.79-50.39L637.79-50.39Q633.79-50.98 626.86-53.13L626.86-53.13L626.86-53.13Q619.92-55.27 615.82-58.20L615.82-58.20L615.82-58.20Q611.72-61.13 608.50-66.70L608.50-66.70L608.50-66.70Q605.27-72.27 605.27-79.69L605.27-79.69L605.27-79.69Q605.27-93.36 616.50-103.32L616.50-103.32L616.50-103.32Q627.73-113.28 644.14-113.28L644.14-113.28L644.14-113.28Q658.20-113.28 668.36-105.27L668.36-105.27L668.36-105.27Q672.07-102.54 672.85-102.54L672.85-102.54L672.85-102.54Q674.02-102.54 674.41-103.52L674.41-103.52L674.41-103.52Q674.80-104.49 675.78-109.57L675.78-109.57L675.78-109.57Q676.17-111.13 676.17-112.11Z" fill="#ebe3e3"></path></g></g><style>text {
  font-size: 64px;
  font-family: Arial Black;
  dominant-baseline: central;
  text-anchor: middle;
}</style></svg>